<svg xmlns="http://www.w3.org/2000/svg" viewBox="0 0 560 126" role="img" aria-labelledby="title description">
  <title id="title">Tendergrove</title>
  <desc id="description">Tendergrove wordmark with a small botanical flourish</desc>
  <defs>
    <linearGradient id="ink" x1="0" y1="0" x2="1" y2="1">
      <stop offset="0" stop-color="#123f3c"/>
      <stop offset="1" stop-color="#277269"/>
    </linearGradient>
  </defs>
  <g fill="none" stroke="#70966f" stroke-linecap="round" stroke-linejoin="round">
    <path d="M49 96c20-1 35-9 46-24" stroke-width="3"/>
    <path d="M68 88c-7-13-17-18-29-16 5 12 14 18 29 16Z" fill="#9db58a" stroke-width="2"/>
    <path d="M83 79c1-14 8-23 20-27 1 13-6 23-20 27Z" fill="#719a77" stroke-width="2"/>
    <path d="M453 97c21-1 38-9 50-25" stroke-width="3"/>
    <path d="M475 88c-7-13-17-18-29-16 5 12 15 18 29 16Z" fill="#9db58a" stroke-width="2"/>
    <path d="M490 79c1-14 8-23 20-27 1 13-6 23-20 27Z" fill="#719a77" stroke-width="2"/>
  </g>
  <text x="280" y="79" fill="url(#ink)" font-family="Georgia, 'Times New Roman', serif" font-size="72" font-style="italic" font-weight="700" letter-spacing="-3" text-anchor="middle">Tendergrove</text>
  <path d="M151 101c77 9 181 9 258 0" fill="none" stroke="#a6bb92" stroke-linecap="round" stroke-width="3" opacity=".75"/>
</svg>
